/vscmnt/brussel_pixiu_data/_data_brussel/112/vsc11236/PredSimResults/SUBJ07mtu3D/worker4.mot
version=1
nRows=4
nColumns=50
inDegrees=yes
endheader
                time	         pelvis_tilt	         pelvis_list	     pelvis_rotation	           pelvis_tx	           pelvis_ty	           pelvis_tz	       hip_flexion_r	     hip_adduction_r	      hip_rotation_r	        knee_angle_r	       ankle_angle_r	         mtp_angle_r	       hip_flexion_l	     hip_adduction_l	      hip_rotation_l	        knee_angle_l	       ankle_angle_l	         mtp_angle_l	    lumbar_extension	      lumbar_bending	     lumbar_rotation	 ercspn_r/activation	 intobl_r/activation	 extobl_r/activation	    abd_r/activation	    add_r/activation	hamstrings_r/activation	bifemsh_r/activation	glut_max_r/activation	iliopsoas_r/activation	rect_fem_r/activation	  vasti_r/activation	gastroc_r/activation	 soleus_r/activation	tib_ant_r/activation	 ercspn_l/activation	 intobl_l/activation	 extobl_l/activation	    abd_l/activation	    add_l/activation	hamstrings_l/activation	bifemsh_l/activation	glut_max_l/activation	iliopsoas_l/activation	rect_fem_l/activation	  vasti_l/activation	gastroc_l/activation	 soleus_l/activation	tib_ant_l/activation	
          0.54964673	         -3.74107497	         -0.33768784	         -8.34329465	          0.67056901	          0.84897109	          0.01382843	        -15.19438492	          0.69874028	          4.11246380	         -7.44631702	          9.01963569	         26.18981504	         30.08976360	         -2.80730391	         -5.05338325	         -7.04470018	          3.06328598	          0.26894940	        -10.65962542	          2.19889437	          1.06323762	          0.12176897	          0.00999999	          0.00999999	          0.03841596	          0.01012916	          0.01610535	          0.15747361	          0.02054389	          0.29969152	          0.01183211	          0.01000000	          0.14061032	          0.29161268	          0.02272599	          0.12568756	          0.15158202	          0.01000000	          0.02030668	          0.12489887	          0.07357515	          0.12719005	          0.07396195	          0.03492474	          0.01000008	          0.00999999	          0.00999999	          0.00999999	          0.40005227	
          0.56063967	         -3.74563302	         -0.35673333	         -8.38490270	          0.68607022	          0.84747235	          0.01368698	        -15.69463208	          0.60619800	          3.79816578	         -8.39921831	          8.14183098	         27.79582680	         29.86609044	         -2.59032675	         -4.60043049	         -8.46979706	          2.72061668	          0.25241128	        -10.56447143	          1.77799372	          1.25104217	          0.13603212	          0.00999999	          0.01000000	          0.03246743	          0.02036283	          0.01361546	          0.13308953	          0.01736276	          0.25328566	          0.01000000	          0.01000000	          0.11883745	          0.27510168	          0.01920697	          0.10622541	          0.14614617	          0.00999999	          0.01716228	          0.10592152	          0.06383458	          0.12717751	          0.11788630	          0.02951680	          0.01000000	          0.00999999	          0.01656498	          0.01183215	          0.42712371	
          0.57163260	         -3.74343336	         -0.37431726	         -8.37487457	          0.70174472	          0.84621800	          0.01346555	        -16.08673489	          0.52529353	          3.43774374	         -9.56099586	          7.12888177	         29.36913286	         29.56887720	         -2.41693649	         -4.13558408	         -9.82417935	          2.29766243	          0.24784453	        -10.46300252	          1.35026681	          1.43516093	          0.15354652	          0.00999999	          0.00999999	          0.02743999	          0.01720974	          0.01150730	          0.11248123	          0.01467422	          0.21406558	          0.01000008	          0.01000000	          0.10043601	          0.25361410	          0.01623286	          0.13280450	          0.12351610	          0.00999999	          0.08572441	          0.11709050	          0.05858074	          0.10748473	          0.12648020	          0.02494626	          0.00999999	          0.00999999	          0.01399997	          0.00999999	          0.49277833	
          0.58262554	         -3.73612577	         -0.41064034	         -8.31346108	          0.71741839	          0.84535756	          0.01313921	        -16.30157273	          0.47861196	          3.04033025	        -11.02653596	          5.95669691	         30.87153346	         29.27939240	         -2.25739149	         -3.74436115	        -11.17456447	          1.82634669	          0.22849730	        -10.37515947	          0.94162076	          1.61361236	          0.19001371	          0.00999999	          0.00999999	          0.02319103	          0.02000559	          0.01000040	          0.09506402	          0.01240198	          0.18319605	          0.01000090	          0.01000014	          0.08488395	          0.22686110	          0.01371927	          0.14458384	          0.10439019	          0.00999999	          0.13113152	          0.14297299	          0.04950981	          0.09084121	          0.15020669	          0.02108344	          0.00999999	          0.00999999	          0.01183214	          0.00999999	          0.51865109	
